<svg xmlns="http://www.w3.org/2000/svg" viewBox="0 0 382.17 90.6"><title>logo_nav_brand</title><g id="Calque_2" data-name="Calque 2"><g id="Calque_1-2" data-name="Calque 1"><circle cx="379.37" cy="87.81" r="2.8" style="fill:#008dbc"/><path d="M202.4,75.26v15h-1.18l-.08-1.79a4.23,4.23,0,0,1-3.63,2c-2.79,0-4.61-2.31-4.61-5.19s1.82-5.19,4.61-5.19A4.25,4.25,0,0,1,201.12,82V75.26Zm-1.28,10.92V84.3a3.55,3.55,0,0,0-3.43-3.07c-2.13,0-3.51,1.78-3.51,4s1.38,4,3.51,4A3.54,3.54,0,0,0,201.12,86.18Z" style="fill:#008dbc"/><path d="M211.85,80.53l-.62,1a3.22,3.22,0,0,0-1.36-.26,3.09,3.09,0,0,0-3,3.17v5.83H205.6v-10h1.22l.06,1.64a3.71,3.71,0,0,1,3.05-1.84A3.14,3.14,0,0,1,211.85,80.53Z" style="fill:#008dbc"/><path d="M221.57,85.68h-8c.16,2.12,1.42,3.59,3.5,3.59A3.22,3.22,0,0,0,220,87.58l.92.66A4.3,4.3,0,0,1,217,90.43c-2.9,0-4.73-2.25-4.73-5.19s1.83-5.19,4.73-5.19,4.57,2.14,4.57,5.11A4.7,4.7,0,0,1,221.57,85.68Zm-8-1h6.81c-.18-2-1.4-3.45-3.35-3.45S213.8,82.63,213.58,84.64Z" style="fill:#008dbc"/><path d="M231.55,83.71v6.52h-1.18l-.06-1.63a5.87,5.87,0,0,1-4,1.83,2.93,2.93,0,0,1-3-3.05c0-1.78,1.33-3.4,5-2.68l2,.38V83.65c0-1.72-1.21-2.46-2.77-2.46a3.22,3.22,0,0,0-3,1.54l-.91-.8a4.37,4.37,0,0,1,4-1.88C229.79,80.05,231.55,81.23,231.55,83.71Zm-1.28,3.69V86.1l-2-.42c-2.74-.56-3.66.48-3.66,1.64a1.85,1.85,0,0,0,2,1.93A5.25,5.25,0,0,0,230.27,87.4Z" style="fill:#008dbc"/><path d="M249.52,83.79v6.44H248.2V83.9a2.64,2.64,0,0,0-2.67-2.67A2.74,2.74,0,0,0,242.77,84v6.25h-1.32V83.9a2.63,2.63,0,0,0-2.67-2.67A2.74,2.74,0,0,0,236,84v6.25h-1.31v-10h1.21l.06,1.38a3.76,3.76,0,0,1,3.1-1.58,3.57,3.57,0,0,1,3.29,2,3.94,3.94,0,0,1,3.46-2A3.63,3.63,0,0,1,249.52,83.79Z" style="fill:#008dbc"/><path d="M265.41,83.71v6.52h-1.18l-.06-1.63a5.87,5.87,0,0,1-4,1.83,2.93,2.93,0,0,1-3-3.05c0-1.78,1.33-3.4,5-2.68l2,.38V83.65c0-1.72-1.21-2.46-2.77-2.46a3.22,3.22,0,0,0-3,1.54l-.91-.8a4.38,4.38,0,0,1,3.95-1.88C263.66,80.05,265.41,81.23,265.41,83.71Zm-1.28,3.69V86.1l-2-.42c-2.74-.56-3.66.48-3.66,1.64a1.85,1.85,0,0,0,2,1.93A5.25,5.25,0,0,0,264.13,87.4Z" style="fill:#008dbc"/><path d="M277,83.92v6.31h-1.32V84a2.81,2.81,0,0,0-2.87-2.81,2.9,2.9,0,0,0-2.95,2.87v6.13h-1.32v-10h1.22l.06,1.5a4,4,0,0,1,3.31-1.7A3.79,3.79,0,0,1,277,83.92Z" style="fill:#008dbc"/><path d="M288.93,75.26v15h-1.18l-.08-1.79a4.25,4.25,0,0,1-3.63,2c-2.79,0-4.61-2.31-4.61-5.19s1.82-5.19,4.61-5.19A4.26,4.26,0,0,1,287.65,82V75.26Zm-1.28,10.92V84.3a3.56,3.56,0,0,0-3.43-3.07c-2.14,0-3.51,1.78-3.51,4s1.37,4,3.51,4A3.55,3.55,0,0,0,287.65,86.18Z" style="fill:#008dbc"/><path d="M303.56,80.53l-.61,1a3.22,3.22,0,0,0-1.36-.26,3.09,3.09,0,0,0-3,3.17v5.83h-1.31v-10h1.21l.06,1.64a3.74,3.74,0,0,1,3.06-1.84A3.09,3.09,0,0,1,303.56,80.53Z" style="fill:#008dbc"/><path d="M313.29,85.68h-8c.16,2.12,1.42,3.59,3.5,3.59a3.22,3.22,0,0,0,3-1.69l.92.66a4.3,4.3,0,0,1-3.91,2.19c-2.9,0-4.74-2.25-4.74-5.19s1.84-5.19,4.74-5.19,4.57,2.14,4.57,5.11A4.7,4.7,0,0,1,313.29,85.68Zm-8-1h6.81c-.18-2-1.4-3.45-3.35-3.45S305.52,82.63,305.3,84.64Z" style="fill:#008dbc"/><path d="M323.27,83.71v6.52h-1.18L322,88.6a5.89,5.89,0,0,1-4,1.83,2.93,2.93,0,0,1-3-3.05c0-1.78,1.33-3.4,5-2.68l2,.38V83.65c0-1.72-1.21-2.46-2.77-2.46a3.22,3.22,0,0,0-3,1.54l-.91-.8a4.37,4.37,0,0,1,3.95-1.88C321.51,80.05,323.27,81.23,323.27,83.71ZM322,87.4V86.1l-2-.42c-2.74-.56-3.66.48-3.66,1.64a1.85,1.85,0,0,0,2,1.93A5.27,5.27,0,0,0,322,87.4Z" style="fill:#008dbc"/><path d="M326.49,87.84V75.26h1.29l0,12.58a1.25,1.25,0,0,0,1.34,1.43,1.37,1.37,0,0,0,1.06-.41l.74.89a2.51,2.51,0,0,1-1.82.68A2.47,2.47,0,0,1,326.49,87.84Z" style="fill:#008dbc"/><path d="M332.58,77.38a1,1,0,1,1,1,1A1,1,0,0,1,332.58,77.38Zm.31,2.87h1.32v10h-1.32Z" style="fill:#008dbc"/><path d="M337,89.35l6.6-8h-6.44V80.25h8.24v.82l-6.61,8.05h6.81v1.11H337Z" style="fill:#008dbc"/><path d="M355.75,85.68h-8c.16,2.12,1.42,3.59,3.49,3.59a3.22,3.22,0,0,0,3-1.69l.91.66a4.28,4.28,0,0,1-3.91,2.19c-2.89,0-4.73-2.25-4.73-5.19s1.84-5.19,4.73-5.19,4.57,2.14,4.57,5.11A4.7,4.7,0,0,1,355.75,85.68Zm-8-1h6.81c-.18-2-1.4-3.45-3.36-3.45S348,82.63,347.77,84.64Z" style="fill:#008dbc"/><path d="M363.42,77.38a1,1,0,0,1,1-1,1,1,0,0,1,0,2A1,1,0,0,1,363.42,77.38Zm.32,2.87h1.32v10h-1.32Z" style="fill:#008dbc"/><path d="M373,89.75a2.67,2.67,0,0,1-4.45-1.91V81.29h-1.38v-1h1.38V76.86h1.32v3.39h2.57v1h-2.57v6.55a1.27,1.27,0,0,0,1.36,1.43,1.32,1.32,0,0,0,1-.41Z" style="fill:#008dbc"/><circle cx="263.84" cy="37.27" r="24.98" style="fill:#008dbc"/><path d="M0,56.24l5.31-7.55a16.16,16.16,0,0,0,11.3,4.78,6.33,6.33,0,0,0,3.68-.94,2.88,2.88,0,0,0,1.34-2.45,2.14,2.14,0,0,0-.81-1.65,8.44,8.44,0,0,0-2.27-1.33c-1-.41-2.41-.92-4.35-1.55-1.22-.41-2.32-.82-3.28-1.22a30.93,30.93,0,0,1-3-1.45A12.74,12.74,0,0,1,5.37,41a14.36,14.36,0,0,1-2-2.28,9.39,9.39,0,0,1-1.33-2.9,13.38,13.38,0,0,1-.45-3.55,11,11,0,0,1,1.94-6.43,12.55,12.55,0,0,1,5.27-4.31A17.83,17.83,0,0,1,16.33,20a24.14,24.14,0,0,1,7.87,1.23,24.24,24.24,0,0,1,7.06,3.91l-5.3,8a16.3,16.3,0,0,0-4.84-3.24,12.59,12.59,0,0,0-4.92-1.08,5,5,0,0,0-2.77.79,2.55,2.55,0,0,0-1.23,2.27,2.74,2.74,0,0,0,1.45,2.2,24.26,24.26,0,0,0,4.68,2.21,54.29,54.29,0,0,1,9.06,4,9.58,9.58,0,0,1,4.73,6.53,13.36,13.36,0,0,1,.25,2.73,11.57,11.57,0,0,1-4.06,9.18q-4.06,3.51-11.78,3.52A24.14,24.14,0,0,1,0,56.24Z" style="fill:#008dbc"/><path d="M79.92,20.73V61.55H69.51V56.61h-.2c-2.92,3.76-7,5.64-12.21,5.64a20,20,0,0,1-7.81-1.52,18.05,18.05,0,0,1-6.21-4.22A19.23,19.23,0,0,1,39,49.86a24.42,24.42,0,0,1-1.47-8.6A24.34,24.34,0,0,1,39,32.73,20.29,20.29,0,0,1,43,26a18.6,18.6,0,0,1,13.74-6,15.11,15.11,0,0,1,12,5.31H69V20.73ZM66.45,49.35a11.12,11.12,0,0,0,3-8,11.79,11.79,0,0,0-2.92-8.17,9.48,9.48,0,0,0-7.37-3.26A9.91,9.91,0,0,0,51.65,33a11.52,11.52,0,0,0-3,8.29,11.29,11.29,0,0,0,2.92,8,10.48,10.48,0,0,0,14.88,0Z" style="fill:#008dbc"/><path d="M130.7,20.73V61.55H120.29V56.61h-.21q-4.36,5.64-12.2,5.64a20,20,0,0,1-7.82-1.52,18,18,0,0,1-6.2-4.22,19.23,19.23,0,0,1-4.06-6.65,24.42,24.42,0,0,1-1.47-8.6,24.34,24.34,0,0,1,1.47-8.53,20.29,20.29,0,0,1,4-6.73,18.6,18.6,0,0,1,13.73-6,15.1,15.1,0,0,1,12,5.31h.17V20.73ZM117.23,49.35a11.16,11.16,0,0,0,3-8,11.84,11.84,0,0,0-2.92-8.17,9.48,9.48,0,0,0-7.37-3.26A9.91,9.91,0,0,0,102.43,33a11.52,11.52,0,0,0-3,8.29,11.25,11.25,0,0,0,2.92,8,10.48,10.48,0,0,0,14.88,0Z" style="fill:#008dbc"/><path d="M181.84,0V61.55H171.43V56.61h-.24q-4.45,5.64-12.5,5.64a22.23,22.23,0,0,1-4.65-.49,17.84,17.84,0,0,1-4.18-1.47A20.62,20.62,0,0,1,146.25,58a16.47,16.47,0,0,1-3-3.14A20.91,20.91,0,0,1,141,50.94a22.2,22.2,0,0,1-1.41-4.55,26.89,26.89,0,0,1-.49-5.13,24.34,24.34,0,0,1,1.47-8.53,20.29,20.29,0,0,1,4-6.73,18.64,18.64,0,0,1,13.74-6,15.53,15.53,0,0,1,12.33,5.31h.2V0ZM166.12,51.08a9.92,9.92,0,0,0,3.9-3.94,11.62,11.62,0,0,0,1.45-5.83,11.52,11.52,0,0,0-3-8.17,10.08,10.08,0,0,0-7.69-3.26A9.9,9.9,0,0,0,153.25,33a11.52,11.52,0,0,0-3,8.29,11.25,11.25,0,0,0,2.92,8,9.88,9.88,0,0,0,7.53,3.1A10.94,10.94,0,0,0,166.12,51.08Z" style="fill:#008dbc"/><path d="M224,21.63A18.49,18.49,0,0,1,230.11,26a20.29,20.29,0,0,1,4,6.73,24.57,24.57,0,0,1,1.46,8.53,24.64,24.64,0,0,1-1.46,8.6,19.25,19.25,0,0,1-4.07,6.65,17.92,17.92,0,0,1-6.2,4.22A20,20,0,0,1,216,62.25q-8,0-12.49-5.64h-.2v4.94H192.9V0h10.94V25.35h.2A15.53,15.53,0,0,1,216.37,20,18.5,18.5,0,0,1,224,21.63Zm-2.41,27.72a11.25,11.25,0,0,0,2.92-8,11.55,11.55,0,0,0-3-8.29A9.82,9.82,0,0,0,214,29.88a10.07,10.07,0,0,0-7.71,3.24,11.57,11.57,0,0,0-3,8.19,10.94,10.94,0,0,0,3.08,8,10.38,10.38,0,0,0,7.65,3.1A9.88,9.88,0,0,0,221.57,49.35Z" style="fill:#008dbc"/><path d="M332,20.73V61.55H321.06v-5h-.16a16.16,16.16,0,0,1-5.49,4.23,15.64,15.64,0,0,1-6.63,1.45,18.59,18.59,0,0,1-6.08-.92A13.15,13.15,0,0,1,298,58.45a12.47,12.47,0,0,1-3.14-5.27,25.45,25.45,0,0,1-1.08-7.87V20.73H304.7V42.45q0,5.5,1.69,7.73T312,52.41a8.13,8.13,0,0,0,6.45-3.1q2.61-3.11,2.61-8.78V20.73Z" style="fill:#008dbc"/><path d="M373.21,21a12.17,12.17,0,0,1,7.86,8.16,25.36,25.36,0,0,1,1.1,7.9V61.59h-11V39.8q0-5.43-1.94-7.68t-6-2.24a9,9,0,0,0-7,2.79c-1.69,1.87-2.53,4.59-2.53,8.19V61.55H342.74V0h10.94V25.67h.16a16.29,16.29,0,0,1,5.9-4.2A20.13,20.13,0,0,1,373.21,21Z" style="fill:#008dbc"/></g></g></svg>