<svg xmlns="http://www.w3.org/2000/svg" viewBox="0 0 215.55 215.55"><title>mini</title><g id="Calque_2" data-name="Calque 2"><g id="Calque_1-2" data-name="Calque 1"><rect width="215.55" height="215.55" style="fill:#008dbc"/><path d="M59.26,153.05l15.91-22.64q15.28,14.31,33.89,14.32,7,0,11-2.82a8.59,8.59,0,0,0,4-7.34,6.41,6.41,0,0,0-2.45-4.95,25,25,0,0,0-6.79-4q-4.35-1.85-13-4.65-5.5-1.84-9.85-3.67A92.65,92.65,0,0,1,83.12,113a38.45,38.45,0,0,1-7.77-5.56,43.61,43.61,0,0,1-5.87-6.85,28.23,28.23,0,0,1-4-8.69,40,40,0,0,1-1.35-10.65A33,33,0,0,1,70,62,37.74,37.74,0,0,1,85.75,49a53.69,53.69,0,0,1,22.45-4.53,72.72,72.72,0,0,1,23.62,3.68A72.91,72.91,0,0,1,153,59.93l-15.9,24a49,49,0,0,0-14.5-9.72,37.57,37.57,0,0,0-14.75-3.25,15,15,0,0,0-8.32,2.39,7.64,7.64,0,0,0-3.67,6.79q0,3.67,4.35,6.61t14,6.6q20.31,7.47,27.16,11.87,11.87,7.35,14.19,19.58a41.91,41.91,0,0,1,.74,8.2q0,17-12.18,27.53T108.81,171Q79.7,171,59.26,153.05Z" style="fill:#fff"/></g></g></svg>